<?xml version="1.0" encoding="UTF-8" standalone="no"?>
<svg width="30px" height="34px" viewBox="0 0 30 34" version="1.1" xmlns="http://www.w3.org/2000/svg" xmlns:xlink="http://www.w3.org/1999/xlink">
    <!-- Generator: Sketch 3.8.3 (29802) - http://www.bohemiancoding.com/sketch -->
    <title>532303</title>
    <desc>Created with Sketch.</desc>
    <defs></defs>
    <g id="Page-1" stroke="none" stroke-width="1" fill="none" fill-rule="evenodd">
        <g id="532303">
            <g id="Group">
                <path d="M23.4775714,5.8667 C23.0138571,4.779975 22.3508571,3.804175 21.5057143,2.966925 C20.661,2.128825 19.677,1.470925 18.5811429,1.0115 C17.4467143,0.5355 16.2415714,0.2941 15.0004286,0.2941 C13.758,0.2941 12.5528571,0.5355 11.4184286,1.0115 C10.323,1.47135 9.33857143,2.128825 8.49428571,2.966925 C7.64871429,3.804175 6.98571429,4.7804 6.522,5.8667 C6.04157143,6.9921 5.79857143,8.1872 5.79857143,9.418425 C5.79857143,11.486475 7.27414286,14.81975 10.1841429,19.32475 C12.318,22.628275 14.4818571,25.392475 14.5032857,25.4201 L15,26.0525 L15.4954286,25.4201 C15.5172857,25.3929 17.6815714,22.6287 19.815,19.32475 C22.725,14.81975 24.2005714,11.486475 24.2005714,9.418425 C24.2014286,8.1872 23.958,6.992525 23.4775714,5.8667 L23.4775714,5.8667 Z M15,12.5477 C13.0307143,12.5477 11.4338571,10.96415 11.4338571,9.01085 C11.4338571,7.05755 13.0311429,5.474 15,5.474 C16.9701429,5.474 18.5661429,7.05755 18.5661429,9.01085 C18.5661429,10.96415 16.9701429,12.5477 15,12.5477 L15,12.5477 Z" id="Shape" fill="#C96363"></path>
                <path d="M21.4598571,21.20495 C24.9188571,22.254275 27.0411429,24.06605 27.0411429,25.752025 C27.0411429,28.32455 22.0958571,31.1916 15,31.1916 C7.90414286,31.1916 2.95885714,28.32455 2.95885714,25.752025 C2.95885714,24.06605 5.08157143,22.254275 8.54057143,21.20495 C8.08628571,20.477775 7.63885714,19.736575 7.20985714,18.993675 C3.10414286,20.38555 0.423857143,22.8667 0.423857143,25.752025 C0.423857143,30.211125 6.82628571,33.70505 15,33.70505 C23.1741429,33.70505 29.5765714,30.211125 29.5765714,25.752025 C29.5765714,22.867125 26.8962857,20.385975 22.7901429,18.993675 C22.3611429,19.736575 21.9132857,20.477775 21.4598571,21.20495 Z" id="Shape" fill="#DFCBCB"></path>
            </g>
        </g>
    </g>
</svg>